<svg xmlns:ns0="http://www.w3.org/2000/svg" xmlns="http://www.w3.org/2000/svg" style="display: none;"><symbol width="24" height="24" viewBox="0 0 24 24" id="icon-facebook-white">
<ns0:path d="M14.6402 3.47992C14.8202 3.47992 15.0002 3.47992 15.3602 3.47992V6.17992C15.1802 6.17992 14.8202 6.17992 14.4602 6.17992C14.1002 6.17992 13.7402 6.17992 13.5602 6.35992C13.3802 6.53992 13.3802 6.71992 13.3802 7.13992C13.3802 7.49992 13.3802 7.73992 13.3802 8.09992H15.3602V10.3799H13.3802V20.2799H10.3202V10.3199H8.7002V8.03992H10.3202V7.25992C10.3202 5.93992 10.5002 4.97992 10.8602 4.55992C11.4002 3.77992 12.4802 3.41992 14.1002 3.41992C14.2802 3.47992 14.4602 3.47992 14.6402 3.47992Z" />
</symbol><symbol width="24" height="24" viewBox="0 0 24 24" id="icon-instagram-white">
<ns0:g opacity="0.8">
<ns0:path d="M21.5386 8.06687C21.5268 7.26111 21.3776 6.46173 21.0918 5.70812C20.5918 4.42124 19.5736 3.40365 18.2845 2.9055C17.5393 2.62556 16.7513 2.47548 15.9538 2.45845C14.9282 2.41268 14.603 2.3999 11.9993 2.3999C9.39568 2.3999 9.06196 2.3999 8.04375 2.45845C7.2473 2.47548 6.45939 2.62556 5.71412 2.9055C4.42509 3.40365 3.40581 4.42124 2.90683 5.70812C2.62642 6.45215 2.47502 7.23875 2.4601 8.03388C2.41425 9.05891 2.40039 9.38356 2.40039 11.9829C2.40039 14.5822 2.40039 14.9143 2.4601 15.9319C2.47609 16.7281 2.62642 17.5136 2.90683 18.2598C3.40688 19.5456 4.42509 20.5632 5.71518 21.0613C6.45725 21.3508 7.24517 21.5148 8.04482 21.5403C9.07156 21.5861 9.39675 21.5999 12.0004 21.5999C14.604 21.5999 14.9378 21.5999 15.956 21.5403C16.7524 21.5243 17.5403 21.3742 18.2867 21.0943C19.5757 20.5951 20.5939 19.5775 21.094 18.2917C21.3744 17.5466 21.5247 16.7611 21.5407 15.9638C21.5865 14.9398 21.6004 14.6152 21.6004 12.0148C21.5983 9.41549 21.5983 9.08552 21.5386 8.06687ZM11.9929 16.8984C9.26987 16.8984 7.06392 14.6961 7.06392 11.9776C7.06392 9.25902 9.26987 7.05674 11.9929 7.05674C14.7139 7.05674 16.9219 9.25902 16.9219 11.9776C16.9219 14.6961 14.7139 16.8984 11.9929 16.8984ZM17.1181 8.02217C16.4816 8.02217 15.9688 7.50912 15.9688 6.87472C15.9688 6.24033 16.4816 5.72728 17.1181 5.72728C17.7525 5.72728 18.2664 6.24033 18.2664 6.87472C18.2664 7.50912 17.7525 8.02217 17.1181 8.02217Z" />
<ns0:path d="M11.9942 14.9821C13.6527 14.9821 14.9972 13.6376 14.9972 11.9791C14.9972 10.3206 13.6527 8.97607 11.9942 8.97607C10.3357 8.97607 8.99121 10.3206 8.99121 11.9791C8.99121 13.6376 10.3357 14.9821 11.9942 14.9821Z" />
</ns0:g>
</symbol><symbol width="24" height="24" viewBox="0 0 24 24" id="icon-youtube-white">
<ns0:g opacity="0.8">
<ns0:path fill-rule="evenodd" clip-rule="evenodd" d="M18.1799 4.49988C17.1599 4.43988 15.0599 4.37988 11.8799 4.37988H11.4599C8.39988 4.37988 6.3599 4.43988 5.3399 4.55988C3.9599 4.67988 2.99988 5.03988 2.45988 5.51988C1.97988 5.93988 1.61989 6.71988 1.49989 7.73988C1.43989 8.39988 1.37988 9.77988 1.37988 11.8799V12.1799C1.37988 14.1599 1.43988 15.5399 1.55988 16.1999C1.73988 17.1599 2.0399 17.8799 2.6399 18.2999C3.2399 18.7799 4.25989 19.0799 5.69989 19.1999C6.71989 19.2599 8.81989 19.3199 11.9999 19.3199H12.4199C15.4799 19.3199 17.5199 19.2599 18.5399 19.1399C19.9199 19.0199 20.8799 18.6599 21.4199 18.1799C21.8999 17.7599 22.2599 16.9799 22.3799 15.9599C22.4399 15.2999 22.4999 13.9199 22.4999 11.8199V11.5199C22.4999 9.53988 22.4399 8.15988 22.3199 7.49988C22.1399 6.53988 21.8399 5.81988 21.2399 5.39988C20.6399 4.91988 19.6199 4.61988 18.1799 4.49988ZM15.8399 11.8799L9.2399 15.8399V7.91988L15.8399 11.8799Z" />
</ns0:g>
</symbol><symbol width="132" height="24" viewBox="0 0 132 24"  id="icon-logo-white">
<ns0:path d="M4.98 13.28L0 5H2.98L6.32 10.74H6.36L9.7 5H12.68L7.7 13.28V19H4.98V13.28Z"  />
<ns0:path d="M12.6703 16.7V7.3L14.9703 5H22.1703L24.4703 7.3V16.7L22.1703 19H14.9703L12.6703 16.7ZM20.7303 16.68L21.7503 15.66V8.34L20.7303 7.32H16.4103L15.3903 8.34V15.66L16.4103 16.68H20.7303Z"  />
<ns0:path d="M26.3742 16.6V5H29.0942V15.66L30.1142 16.68H34.0342L35.0542 15.66V5H37.7742V16.6L35.3742 19H28.7742L26.3742 16.6Z"  />
<ns0:path d="M50.8781 14.36V19H48.1581V14.98L46.9581 13.64H42.5981V19H39.8781V5H48.6581L50.7981 7.16V11.4L49.4381 12.78L50.8781 14.36ZM42.5981 11.4H47.4181L48.1181 10.7V7.98L47.4181 7.28H42.5981V11.4Z"  />
<ns0:path d="M57.8234 5H67.9434V7.3H60.5434V10.84H67.3634V13.1H60.5434V16.7H67.9434V19H57.8234V5Z"  />
<ns0:path d="M69.4523 5H71.8923L78.1323 14.5H78.1723V5H80.7923V19H78.3523L72.1123 9.52H72.0723V19H69.4523V5Z" />
<ns0:path d="M82.8977 5H93.0177V7.3H85.6177V10.84H92.4377V13.1H85.6177V16.7H93.0177V19H82.8977V5Z"  />
<ns0:path d="M105.527 14.36V19H102.807V14.98L101.607 13.64H97.2466V19H94.5266V5H103.307L105.447 7.16V11.4L104.087 12.78L105.527 14.36ZM97.2466 11.4H102.067L102.767 10.7V7.98L102.067 7.28H97.2466V11.4Z"  />
<ns0:path d="M107.323 16.7V7.3L109.623 5H116.583L118.843 7.26V9.4H116.123V8.26L115.183 7.32H111.063L110.043 8.34V15.66L111.063 16.68H115.223L116.203 15.7V13.52H113.203V11.2H118.843V16.7L116.543 19H109.623L107.323 16.7Z"  />
<ns0:path d="M123.828 13.28L118.848 5H121.828L125.168 10.74H125.208L128.548 5H131.528L126.548 13.28V19H123.828V13.28Z"  />
</symbol></svg>