<svg width="24" height="24" viewBox="0 0 24 24" fill="none" xmlns="http://www.w3.org/2000/svg">
<g opacity="0.8">
<path d="M21.5386 8.06687C21.5268 7.26111 21.3776 6.46173 21.0918 5.70812C20.5918 4.42124 19.5736 3.40365 18.2845 2.9055C17.5393 2.62556 16.7513 2.47548 15.9538 2.45845C14.9282 2.41268 14.603 2.3999 11.9993 2.3999C9.39568 2.3999 9.06196 2.3999 8.04375 2.45845C7.2473 2.47548 6.45939 2.62556 5.71412 2.9055C4.42509 3.40365 3.40581 4.42124 2.90683 5.70812C2.62642 6.45215 2.47502 7.23875 2.4601 8.03388C2.41425 9.05891 2.40039 9.38356 2.40039 11.9829C2.40039 14.5822 2.40039 14.9143 2.4601 15.9319C2.47609 16.7281 2.62642 17.5136 2.90683 18.2598C3.40688 19.5456 4.42509 20.5632 5.71518 21.0613C6.45725 21.3508 7.24517 21.5148 8.04482 21.5403C9.07156 21.5861 9.39675 21.5999 12.0004 21.5999C14.604 21.5999 14.9378 21.5999 15.956 21.5403C16.7524 21.5243 17.5403 21.3742 18.2867 21.0943C19.5757 20.5951 20.5939 19.5775 21.094 18.2917C21.3744 17.5466 21.5247 16.7611 21.5407 15.9638C21.5865 14.9398 21.6004 14.6152 21.6004 12.0148C21.5983 9.41549 21.5983 9.08552 21.5386 8.06687ZM11.9929 16.8984C9.26987 16.8984 7.06392 14.6961 7.06392 11.9776C7.06392 9.25902 9.26987 7.05674 11.9929 7.05674C14.7139 7.05674 16.9219 9.25902 16.9219 11.9776C16.9219 14.6961 14.7139 16.8984 11.9929 16.8984ZM17.1181 8.02217C16.4816 8.02217 15.9688 7.50912 15.9688 6.87472C15.9688 6.24033 16.4816 5.72728 17.1181 5.72728C17.7525 5.72728 18.2664 6.24033 18.2664 6.87472C18.2664 7.50912 17.7525 8.02217 17.1181 8.02217Z" fill="#F4F4F4"/>
<path d="M11.9942 14.9821C13.6527 14.9821 14.9972 13.6376 14.9972 11.9791C14.9972 10.3206 13.6527 8.97607 11.9942 8.97607C10.3357 8.97607 8.99121 10.3206 8.99121 11.9791C8.99121 13.6376 10.3357 14.9821 11.9942 14.9821Z" fill="#F4F4F4"/>
</g>
</svg>
