<svg width="24" height="24" viewBox="0 0 24 24" fill="none" xmlns="http://www.w3.org/2000/svg">
<g opacity="0.8">
<path fill-rule="evenodd" clip-rule="evenodd" d="M18.1799 4.49988C17.1599 4.43988 15.0599 4.37988 11.8799 4.37988H11.4599C8.39988 4.37988 6.3599 4.43988 5.3399 4.55988C3.9599 4.67988 2.99988 5.03988 2.45988 5.51988C1.97988 5.93988 1.61989 6.71988 1.49989 7.73988C1.43989 8.39988 1.37988 9.77988 1.37988 11.8799V12.1799C1.37988 14.1599 1.43988 15.5399 1.55988 16.1999C1.73988 17.1599 2.0399 17.8799 2.6399 18.2999C3.2399 18.7799 4.25989 19.0799 5.69989 19.1999C6.71989 19.2599 8.81989 19.3199 11.9999 19.3199H12.4199C15.4799 19.3199 17.5199 19.2599 18.5399 19.1399C19.9199 19.0199 20.8799 18.6599 21.4199 18.1799C21.8999 17.7599 22.2599 16.9799 22.3799 15.9599C22.4399 15.2999 22.4999 13.9199 22.4999 11.8199V11.5199C22.4999 9.53988 22.4399 8.15988 22.3199 7.49988C22.1399 6.53988 21.8399 5.81988 21.2399 5.39988C20.6399 4.91988 19.6199 4.61988 18.1799 4.49988ZM15.8399 11.8799L9.2399 15.8399V7.91988L15.8399 11.8799Z" fill="#F4F4F4"/>
</g>
</svg>
