<svg width="132" height="24" viewBox="0 0 132 24" fill="none" xmlns="http://www.w3.org/2000/svg">
<path d="M4.98 13.28L0 5H2.98L6.32 10.74H6.36L9.7 5H12.68L7.7 13.28V19H4.98V13.28Z" fill="#F4F4F4"/>
<path d="M12.6703 16.7V7.3L14.9703 5H22.1703L24.4703 7.3V16.7L22.1703 19H14.9703L12.6703 16.7ZM20.7303 16.68L21.7503 15.66V8.34L20.7303 7.32H16.4103L15.3903 8.34V15.66L16.4103 16.68H20.7303Z" fill="#F4F4F4"/>
<path d="M26.3742 16.6V5H29.0942V15.66L30.1142 16.68H34.0342L35.0542 15.66V5H37.7742V16.6L35.3742 19H28.7742L26.3742 16.6Z" fill="#F4F4F4"/>
<path d="M50.8781 14.36V19H48.1581V14.98L46.9581 13.64H42.5981V19H39.8781V5H48.6581L50.7981 7.16V11.4L49.4381 12.78L50.8781 14.36ZM42.5981 11.4H47.4181L48.1181 10.7V7.98L47.4181 7.28H42.5981V11.4Z" fill="#F4F4F4"/>
<path d="M57.8234 5H67.9434V7.3H60.5434V10.84H67.3634V13.1H60.5434V16.7H67.9434V19H57.8234V5Z" fill="#F4F4F4"/>
<path d="M69.4523 5H71.8923L78.1323 14.5H78.1723V5H80.7923V19H78.3523L72.1123 9.52H72.0723V19H69.4523V5Z" fill="#F4F4F4"/>
<path d="M82.8977 5H93.0177V7.3H85.6177V10.84H92.4377V13.1H85.6177V16.7H93.0177V19H82.8977V5Z" fill="#F4F4F4"/>
<path d="M105.527 14.36V19H102.807V14.98L101.607 13.64H97.2466V19H94.5266V5H103.307L105.447 7.16V11.4L104.087 12.78L105.527 14.36ZM97.2466 11.4H102.067L102.767 10.7V7.98L102.067 7.28H97.2466V11.4Z" fill="#F4F4F4"/>
<path d="M107.323 16.7V7.3L109.623 5H116.583L118.843 7.26V9.4H116.123V8.26L115.183 7.32H111.063L110.043 8.34V15.66L111.063 16.68H115.223L116.203 15.7V13.52H113.203V11.2H118.843V16.7L116.543 19H109.623L107.323 16.7Z" fill="#F4F4F4"/>
<path d="M123.828 13.28L118.848 5H121.828L125.168 10.74H125.208L128.548 5H131.528L126.548 13.28V19H123.828V13.28Z" fill="#F4F4F4"/>
</svg>
