<svg width="24" height="24" viewBox="0 0 24 24" fill="none" xmlns="http://www.w3.org/2000/svg">
  <path
    d="M14.6402 3.47992C14.8202 3.47992 15.0002 3.47992 15.3602 3.47992V6.17992C15.1802 6.17992 14.8202 6.17992 14.4602 6.17992C14.1002 6.17992 13.7402 6.17992 13.5602 6.35992C13.3802 6.53992 13.3802 6.71992 13.3802 7.13992C13.3802 7.49992 13.3802 7.73992 13.3802 8.09992H15.3602V10.3799H13.3802V20.2799H10.3202V10.3199H8.7002V8.03992H10.3202V7.25992C10.3202 5.93992 10.5002 4.97992 10.8602 4.55992C11.4002 3.77992 12.4802 3.41992 14.1002 3.41992C14.2802 3.47992 14.4602 3.47992 14.6402 3.47992Z"
    fill="#F4F4F4"/>
</svg>
