<svg aria-hidden="true" style="position: absolute; width: 0; height: 0; overflow: hidden;" version="1.1" xmlns="http://www.w3.org/2000/svg" xmlns:xlink="http://www.w3.org/1999/xlink">
<defs>
<symbol id="icon-button-close" viewBox="0 0 32 32">
<path fill="none" stroke="#f4f4f4" style="stroke: var(--color1, #f4f4f4)" stroke-linejoin="round" stroke-linecap="round" stroke-miterlimit="4" stroke-width="4.5714" d="M29.333 2.667l-26.665 26.665M2.667 2.667l26.665 26.665"></path>
</symbol>
<symbol id="icon-heart" viewBox="0 0 32 32">
<path fill="none" stroke-linejoin="round" stroke-linecap="round" stroke-miterlimit="4" stroke-width="2.4" d="M27.787 6.147c-1.327-1.328-3.161-2.149-5.186-2.149s-3.859 0.821-5.186 2.149l-0 0-1.414 1.413-1.413-1.413c-1.327-1.327-3.161-2.148-5.186-2.148-4.051 0-7.335 3.284-7.335 7.335 0 2.025 0.821 3.859 2.148 5.186v0l11.786 11.787 11.787-11.787c1.327-1.327 2.148-3.161 2.148-5.186s-0.821-3.859-2.148-5.186v0z"></path>
</symbol>
<symbol id="icon-star" viewBox="0 0 34 32">
<path fill="#f4f4f4" style="fill: var(--color1, #f4f4f4)" opacity="0.2" d="M14.89 2.282c0.738-2.267 3.946-2.267 4.682 0l2.080 6.4c0.33 0.997 1.253 1.703 2.341 1.703h6.732c2.385 0 3.375 3.052 1.447 4.453l-5.447 3.956c-0.618 0.453-1.014 1.176-1.014 1.991 0 0.272 0.044 0.534 0.126 0.778l-0.005-0.017 2.080 6.402c0.738 2.267-1.858 4.155-3.788 2.752l-5.445-3.956c-0.401-0.294-0.903-0.471-1.447-0.471s-1.047 0.176-1.454 0.475l0.007-0.005-5.445 3.956c-1.93 1.403-4.524-0.485-3.788-2.752l2.080-6.4c0.077-0.228 0.121-0.49 0.121-0.763 0-0.816-0.397-1.539-1.008-1.987l-0.007-0.005-5.447-3.956c-1.927-1.403-0.935-4.455 1.447-4.455h6.732c1.086-0.001 2.007-0.705 2.333-1.681l0.005-0.017 2.082-6.4z"></path>
</symbol>
<symbol id="icon-trash" viewBox="0 0 32 32">
<path stroke-linejoin="round" stroke-linecap="round" stroke-miterlimit="4" stroke-width="2.4" d="M21.333 8v-1.067c0-1.493 0-2.24-0.29-2.81-0.261-0.505-0.662-0.906-1.152-1.159l-0.015-0.007c-0.57-0.29-1.317-0.29-2.81-0.29h-2.134c-1.493 0-2.24 0-2.81 0.29-0.502 0.256-0.91 0.664-1.166 1.166-0.29 0.57-0.29 1.317-0.29 2.81v1.067M13.333 15.333v6.667M18.667 15.333v6.667M4 8h24M25.333 8v14.933c0 2.24 0 3.36-0.435 4.216-0.391 0.756-0.992 1.358-1.727 1.738l-0.022 0.011c-0.854 0.435-1.976 0.435-4.216 0.435h-5.866c-2.24 0-3.36 0-4.216-0.435-0.756-0.391-1.358-0.992-1.738-1.727l-0.011-0.022c-0.435-0.856-0.435-1.976-0.435-4.216v-14.933"></path>
</symbol>
</defs>
</svg>
